<svg width="800" height="800" viewBox="0 0 80 80" fill="none" xmlns="http://www.w3.org/2000/svg"><path d="M44.906 37.325c.834.92 1.583 2.127 1.266 2.443-.316.317-1.292-.256-2.041-1.005-.749-.75-2.53 7.189-2.705 7.591-.128.304-2.203 2.68-3.29 4.943-.364.753-.308 3.03-.445 3.167-.548.547-1.237.487-2.73-.835-1.494-1.322-2.273 6.547-.488 7.793C37.52 63.548 43.613 72 51.667 72c9.316 0 17.939-9.718 17.939-16.847 0-7.13-2.093-9.834-1.956-15.813.115-5.058 3.796-7.475 3.796-10.005 0-2.126-3.163-2.644-4.198-2.644-1.84 0-6.556 2.358-6.556 8.567 0 2.414-.69 4.6-3.163 4.6s-5.233-3.393-6.898-6.038" fill="url('#paint0_linear')"/><path d="M71.441 29.33c0-1.154-.937-1.835-1.955-2.216 1.224 4.057-4.986 4.232-4.986 18.063 0 13.83-8.049 17.853-11.387 18.542-3.333.69-9.213.89-13.685-4.6-1.374-1.686-3.235-3.517-5.306-5.246-.877 1.463-1.062 6.564.342 7.548C37.511 63.548 43.604 72 51.658 72c9.316 0 17.939-9.719 17.939-16.848 0-7.13-2.093-9.834-1.956-15.812.12-5.062 3.8-7.48 3.8-10.01Z" fill="url('#paint1_linear')"/><path d="M34.956 53.625c-1.493-1.322-5.032-5.088-7.33-6.928-2.298-1.84-4.314-1.819-5.692.214-1.378 2.032 2.645 5.593 3.565 6.513 1.408 1.408 7.19 6.748 8.97 7.993" fill="url('#paint2_linear')"/><path d="M41.426 46.35c-.17.402-1.348.68-3.68-1.857-1.784-1.939-6.556-7.515-9.371-10.044-2.816-2.529-5.003-3.565-6.843-2.242-1.84 1.322-.796 4.078 1.267 6.384 2.546 2.846 5.473 5.752 8.28 8.538 2.195 2.178 7.16 6.787 6.612 7.33" fill="url('#paint3_linear')"/><path d="M50.627 33.816c-1.67-2.645-8.512-11.156-10.176-13.57-1.67-2.413-3.912-2.413-5.465-1.322-1.553 1.091-2.011 3.278 1.48 7.921 2.204 2.931 4.04 5.623 8.44 10.48l5.117-.355.604-3.154Z" fill="url('#paint4_linear')"/><path d="M44.127 38.763c-.75-.75-7.36-8.585-8.854-10.266-2.803-3.15-6.355-9.89-10.596-6.886-2.23 1.58-1.022 3.869-.389 4.789.633.92 8.854 10.407 9.658 11.212.805.804 7.647 8.336 7.476 8.738" fill="url('#paint5_linear')"/><path d="M31.075 47.129c2.071 2.054 6.603 6.269 6.65 7.198.655-1.023-.544-4.053-1.806-5.118-7.305-6.154-14.361-16.07-15.26-15.774-.385 1.442.59 3.424 2.136 5.152 2.546 2.85 5.473 5.752 8.28 8.542Z" fill="url('#paint6_linear')"/><path d="M44.905 37.325c.8.886 1.52 2.033 1.293 2.4 2.666-2.143-2.974-8.447-6.17-12.234-2.474-2.931-3.146-6.654-4.918-8.653a1.268 1.268 0 0 0-.124.086c-1.553 1.091-2.011 3.278 1.48 7.92 2.204 2.928 4.04 5.624 8.44 10.48Z" fill="url('#paint7_linear')"/><path d="M33.95 37.611c.805.805 7.648 8.336 7.476 8.739 2.114-2.846-6.08-11.212-10.047-15.44-3.44-3.663-4.031-6.873-7.386-8.674-1.25 1.506-.257 3.36.3 4.16.628.924 8.853 10.41 9.657 11.215Z" fill="url('#paint8_linear')"/><path d="M41.272 46.522c-.24.145-.731.162-1.493-.283.565.462 1.091.634 1.493.283Z" fill="url('#paint9_linear')"/><path d="M26.505 61.618a.577.577 0 0 1-.15-.021c-5.247-1.6-10.934-7.339-12.166-12.277a.52.52 0 0 1 .376-.63.52.52 0 0 1 .63.377c1.138 4.553 6.602 10.052 11.464 11.537a.515.515 0 0 1 .342.646.521.521 0 0 1-.496.368Z" fill="#955500"/><path d="M29.008 68.131a.599.599 0 0 1-.12-.013c-4.343-1.01-9.389-4.253-13.848-8.9-4.168-4.344-6.864-8.966-7.04-12.06a.518.518 0 1 1 1.037-.06c.158 2.816 2.807 7.293 6.752 11.4 4.322 4.507 9.18 7.643 13.335 8.61a.513.513 0 0 1 .385.621.515.515 0 0 1-.501.402ZM51.26 22.835a.517.517 0 0 1-.5-.385c-.728-2.764-4.036-6.727-7.048-7.51a.516.516 0 1 1 .257-1.001c3.393.877 6.97 5.152 7.788 8.246a.516.516 0 0 1-.368.633c-.043.008-.086.017-.129.017ZM57.786 23.755a.515.515 0 0 1-.5-.39C55.343 15.728 48.093 9.77 43.95 9.026a.52.52 0 0 1-.42-.598.52.52 0 0 1 .6-.42c4.515.813 12.08 6.95 14.152 15.102a.519.519 0 0 1-.497.646Z" fill="#955500"/><path d="M67.736 27.547c1.754-.317 2.066-.116 1.75-.437a7.048 7.048 0 0 0-2.243-.427c-1.84 0-6.555 2.358-6.555 8.567 0 2.413-.69 4.6-3.163 4.6-.975 0-1.994-.526-2.974-1.33 4.34 4.805 7.745.277 8.263-2.825.518-3.098-.23-7.22 4.922-8.148Z" fill="url('#paint10_radial')"/><path d="M34.455 19.395c-1.074 1.215-1.04 3.393 2.012 7.45 2.203 2.932 4.04 5.623 8.438 10.48.835.92 1.584 2.127 1.267 2.444.736-5.033-6.423-9.975-8.751-13.771-1.849-3.008-2.217-4.78-2.966-6.603Z" fill="url('#paint11_linear')"/><path d="M33.95 37.612c.805.804 7.647 8.336 7.476 8.738 1.51-1.078.48-2.756-1.853-5.088-4.784-4.784-11.438-11.207-14.117-16.5-.252-.502-.723-.87-1.28-.942-1.446-.189-.372 1.874.112 2.576.633.924 8.858 10.411 9.662 11.216Z" fill="url('#paint12_linear')"/><path d="M22.794 38.587c2.546 2.846 5.473 5.752 8.28 8.537 2.196 2.179 7.16 6.787 6.612 7.33 3.077-2.588-11.216-11.951-17.027-21.019-.38 1.442.59 3.428 2.135 5.152Z" fill="url('#paint13_linear')"/><path d="M37.057 54.977c.291-.116.445-.253.492-.398-.526.407-1.22.261-2.593-.954-1.493-1.323-5.032-5.088-7.33-6.928-1.01-.81-1.965-1.259-2.837-1.336 1.245.78.667 1.062 3.44 3.188 1.485 1.139 6.928 7.177 8.828 6.428Z" fill="url('#paint14_radial')"/><path d="M33.433 41.176c2.02 2.456 5.956 6.517 7.728 5.396-.488.167-1.6-.102-3.415-2.075-1.784-1.939-6.556-7.514-9.371-10.044-2.281-2.05-4.147-3.115-5.752-2.747 4.669 1.532 8.901 7.146 10.81 9.47Z" fill="url('#paint15_radial')"/><path d="M35.62 30.598c3.222 3.505 8.002 10.454 10.428 9.239-.398.124-1.25-.407-1.917-1.074-.749-.749-7.36-8.584-8.854-10.266-1.943-2.183-4.245-6.085-6.885-7.28 2.661 2.098 4.617 6.54 7.227 9.381Z" fill="url('#paint16_radial')"/><path d="M54.551 38.527c-1.506-1.232-2.914-3.106-3.928-4.711-1.67-2.645-8.512-11.156-10.176-13.57-.51-.736-1.07-1.245-1.648-1.57.779 1.112 1.215 2.704 2.97 4.677 2.816 3.162 6.496 8.854 7.763 10.81 1.266 1.955 3.307 6.076 5.02 4.364Z" fill="url('#paint17_linear')"/><path d="M63.777 66.587c-1.048-2.547-2.576-4.096-4.784-2.64-6.03 3.97-12.966 2.627-21.658-4.4-7.754-6.27-11.763-10.754-15.538-12.376-.903 2.063 2.825 5.37 3.706 6.252 1.408 1.408 7.19 6.749 8.97 7.994 3.046 2.127 9.14 10.579 17.194 10.579 4.489 0 8.824-2.264 12.11-5.41Z" fill="url('#paint18_linear')"/><path d="M67.646 39.336c.115-5.058 3.795-7.476 3.795-10.005 0-.745-.389-1.292-.937-1.69.672 1.968-.928 3.718-3.32 6.692-2.59 3.218-3.163 8.225-1.378 13.228 1.784 5.002-.458 11.9-4.083 14.087-3.624 2.187-8.434 11.79-22.218.937l-.009-.008c-.843-.783-1.673-1.472-2.516-1.994-5.82-3.608-9.136-6.847-11.644-9.573-.492-.535-1.818-2.59-3.393-1.917.787 1.784 2.914 3.693 3.552 4.33 1.408 1.408 7.189 6.749 8.97 7.994.23.163.483.364.748.59.068.06.141.12.21.185.017.017.038.034.055.05.047.04.09.082.137.125.009.009.022.017.03.03 1.81 1.643 4.3 4.36 7.352 6.487a20.717 20.717 0 0 0 .822.548c.004.004.008.004.012.009.274.175.552.342.835.505.004 0 .004.004.008.004 2.11 1.211 4.45 2.05 6.98 2.05 9.316 0 17.939-9.719 17.939-16.848 0-7.13-2.084-9.838-1.947-15.816Z" fill="url('#paint19_radial')"/><defs><linearGradient id="paint0_linear" x1="65.074" y1="73.84" x2="57.398" y2="55.856" gradientUnits="userSpaceOnUse"><stop offset=".001" stop-color="#BE8D68"/><stop offset="1" stop-color="#CD9870"/></linearGradient><linearGradient id="paint1_linear" x1="70.59" y1="66.089" x2="54.489" y2="46.883" gradientUnits="userSpaceOnUse"><stop offset=".001" stop-color="#BE8D68"/><stop offset="1" stop-color="#CD9870"/></linearGradient><linearGradient id="paint2_linear" x1="23.567" y1="48.546" x2="33.055" y2="55.532" gradientUnits="userSpaceOnUse"><stop offset=".001" stop-color="#BE8D68"/><stop offset="1" stop-color="#CD9870"/></linearGradient><linearGradient id="paint3_linear" x1="20.113" y1="30.054" x2="36.759" y2="47.477" gradientUnits="userSpaceOnUse"><stop offset=".001" stop-color="#BE8D68"/><stop offset="1" stop-color="#CD9870"/></linearGradient><linearGradient id="paint4_linear" x1="38.093" y1="21.834" x2="47.753" y2="37.014" gradientUnits="userSpaceOnUse"><stop offset=".001" stop-color="#BE8D68"/><stop offset="1" stop-color="#CD9870"/></linearGradient><linearGradient id="paint5_linear" x1="28.121" y1="24.356" x2="41.231" y2="42.066" gradientUnits="userSpaceOnUse"><stop offset=".001" stop-color="#BE8D68"/><stop offset="1" stop-color="#CD9870"/></linearGradient><linearGradient id="paint6_linear" x1="32.892" y1="40.4" x2="27.389" y2="45.584" gradientUnits="userSpaceOnUse"><stop stop-color="#BE8D68" stop-opacity="0"/><stop offset="1" stop-color="#B37E53"/></linearGradient><linearGradient id="paint7_linear" x1="43.713" y1="26.493" x2="35.433" y2="33.968" gradientUnits="userSpaceOnUse"><stop stop-color="#BE8D68" stop-opacity="0"/><stop offset="1" stop-color="#B37E53"/></linearGradient><linearGradient id="paint8_linear" x1="36.096" y1="31.818" x2="24.711" y2="40.141" gradientUnits="userSpaceOnUse"><stop stop-color="#BE8D68" stop-opacity="0"/><stop offset="1" stop-color="#B37E53"/></linearGradient><linearGradient id="paint9_linear" x1="44.578" y1="43.42" x2="33.192" y2="51.743" gradientUnits="userSpaceOnUse"><stop stop-color="#BE8D68" stop-opacity="0"/><stop offset="1" stop-color="#B37E53"/></linearGradient><linearGradient id="paint11_linear" x1="45.228" y1="25.025" x2="38.155" y2="31.58" gradientUnits="userSpaceOnUse"><stop offset=".307" stop-color="#B37E53" stop-opacity="0"/><stop offset="1" stop-color="#B37E53"/></linearGradient><linearGradient id="paint12_linear" x1="39.812" y1="28.578" x2="30.497" y2="36.973" gradientUnits="userSpaceOnUse"><stop offset=".307" stop-color="#B37E53" stop-opacity="0"/><stop offset="1" stop-color="#B37E53"/></linearGradient><linearGradient id="paint13_linear" x1="36.664" y1="37.658" x2="25.164" y2="47.318" gradientUnits="userSpaceOnUse"><stop offset=".307" stop-color="#B37E53" stop-opacity="0"/><stop offset="1" stop-color="#B37E53"/></linearGradient><linearGradient id="paint17_linear" x1="46.957" y1="27.1" x2="41.552" y2="55.965" gradientUnits="userSpaceOnUse"><stop offset=".312" stop-color="#DEBA94" stop-opacity="0"/><stop offset="1" stop-color="#D2A374"/></linearGradient><linearGradient id="paint18_linear" x1="40.395" y1="59.078" x2="34.529" y2="64.469" gradientUnits="userSpaceOnUse"><stop offset=".312" stop-color="#B37E53" stop-opacity="0"/><stop offset="1" stop-color="#B37E53"/></linearGradient><radialGradient id="paint10_radial" cx="0" cy="0" r="1" gradientUnits="userSpaceOnUse" gradientTransform="translate(59.512 29.907) scale(13.6676)"><stop stop-color="#B37E53" stop-opacity="0"/><stop offset="1" stop-color="#B37E53"/></radialGradient><radialGradient id="paint14_radial" cx="0" cy="0" r="1" gradientUnits="userSpaceOnUse" gradientTransform="translate(31.168 50.201) scale(5.66209)"><stop stop-color="#B37E53" stop-opacity="0"/><stop offset="1" stop-color="#B37E53"/></radialGradient><radialGradient id="paint15_radial" cx="0" cy="0" r="1" gradientUnits="userSpaceOnUse" gradientTransform="translate(31.889 39.196) scale(8.46148)"><stop stop-color="#B37E53" stop-opacity="0"/><stop offset="1" stop-color="#B37E53"/></radialGradient><radialGradient id="paint16_radial" cx="0" cy="0" r="1" gradientUnits="userSpaceOnUse" gradientTransform="translate(37.217 30.597) scale(9.10873)"><stop stop-color="#B37E53" stop-opacity="0"/><stop offset="1" stop-color="#B37E53"/></radialGradient><radialGradient id="paint19_radial" cx="0" cy="0" r="1" gradientUnits="userSpaceOnUse" gradientTransform="matrix(26.42699 29.49932 -26.78159 23.9923 45.46 45.559)"><stop offset=".615" stop-color="#B37E53" stop-opacity="0"/><stop offset="1" stop-color="#B37E53"/></radialGradient></defs></svg>